<svg width="24" height="24" viewBox="0 0 24 24" fill="none" xmlns="http://www.w3.org/2000/svg">
<path d="M19 15H5C4.20435 15 3.44129 15.3161 2.87868 15.8787C2.31607 16.4413 2 17.2044 2 18C2 18.7956 2.31607 19.5587 2.87868 20.1213C3.44129 20.6839 4.20435 21 5 21H19C19.7956 21 20.5587 20.6839 21.1213 20.1213C21.6839 19.5587 22 18.7956 22 18C22 17.2044 21.6839 16.4413 21.1213 15.8787C20.5587 15.3161 19.7956 15 19 15ZM18 11C19.0609 11 20.0783 10.5786 20.8284 9.82843C21.5786 9.07828 22 8.06087 22 7C22 5.93913 21.5786 4.92172 20.8284 4.17157C20.0783 3.42143 19.0609 3 18 3C16.9391 3 15.9217 3.42143 15.1716 4.17157C14.4214 4.92172 14 5.93913 14 7C14 8.06087 14.4214 9.07828 15.1716 9.82843C15.9217 10.5786 16.9391 11 18 11ZM2 7L6.5 2.5L11 7L6.5 11.5L2 7Z" fill="#DDDDDD" fill-opacity="0.866667"/>
</svg>
