<svg width="20" height="21" viewBox="0 0 20 21" fill="none" xmlns="http://www.w3.org/2000/svg">
<path d="M10 20.8824C11.1046 20.8824 12 19.9869 12 18.8824C12 17.7778 11.1046 16.8824 10 16.8824C8.89543 16.8824 8 17.7778 8 18.8824C8 19.9869 8.89543 20.8824 10 20.8824Z" fill="#DDDDDD" fill-opacity="0.866667"/>
<path d="M10 13.9412C11.1046 13.9412 12 13.0457 12 11.9412C12 10.8366 11.1046 9.94118 10 9.94118C8.89543 9.94118 8 10.8366 8 11.9412C8 13.0457 8.89543 13.9412 10 13.9412Z" fill="#DDDDDD" fill-opacity="0.866667"/>
<path d="M10 7C11.1046 7 12 6.10457 12 5C12 3.89543 11.1046 3 10 3C8.89543 3 8 3.89543 8 5C8 6.10457 8.89543 7 10 7Z" fill="#DDDDDD" fill-opacity="0.866667"/>
</svg>
