<svg width="35" height="47" viewBox="0 0 35 47" fill="none" xmlns="http://www.w3.org/2000/svg">
<path d="M24.0986 44.2065L13.8859 46.9533C13.1583 47.1489 12.4036 46.7116 12.2086 45.9812C12.0137 45.251 12.4495 44.4933 13.177 44.2977L23.3896 41.5509C24.1172 41.3553 24.872 41.7926 25.0669 42.5229C25.262 43.2533 24.8261 44.0108 24.0986 44.2065ZM19.3701 12.7037C19.2786 13.9534 18.5744 14.6577 17.4811 14.6399C16.3925 14.6222 15.6003 13.8734 15.6264 12.7331C15.6518 11.6236 16.3448 10.8948 17.5238 10.9077C18.702 10.9205 19.2859 11.6193 19.3701 12.7037ZM32.4628 8.49224C28.4001 1.75688 20.3534 -1.5156 12.8777 0.676756C6.33551 2.59549 2.06989 6.93145 0.51885 13.5999C-1.01636 20.2001 0.894524 25.8771 5.7307 30.6314C6.86487 31.7464 7.90768 33.097 8.54706 34.5383C9.18807 35.9829 9.39357 36.4346 10.9549 36.0553C13.1233 35.5286 15.2627 34.8817 17.4307 34.3531C18.5421 34.0821 18.9644 33.4592 18.957 32.3346C18.9273 27.7956 18.9373 23.2563 18.9537 18.7172C18.9573 17.6898 18.6356 16.8438 17.5343 16.8181C16.4194 16.7921 16.0781 17.6098 16.0874 18.6573C16.1132 21.6001 16.0952 24.5432 16.095 27.4861C16.0949 32.2204 16.095 32.2204 11.4574 32.9006C9.69435 30.8728 8.0889 29.05 6.50914 27.205C0.839354 20.583 1.8762 10.7939 8.95254 5.72392C14.0364 2.08131 19.4976 1.87863 24.9425 4.95419C29.9982 7.81009 32.7486 13.6938 32.0196 19.3855C31.5326 23.1877 29.7238 26.2227 27.041 28.8318C25.4219 30.4064 23.9465 32.1017 23.4154 34.3784C23.167 35.4433 22.5722 35.9715 21.5444 36.2258C21.7365 36.0466 10.4669 39.2162 10.4669 39.2162C9.75396 39.4079 9.32702 40.1503 9.51811 40.8658L9.54748 40.9765C9.73857 41.692 10.4781 42.1207 11.1911 41.929C11.1911 41.929 24.1218 38.4412 24.2913 38.393C25.4888 38.0612 26.1405 37.2055 26.1678 35.9842C26.2086 34.1608 26.9979 32.7417 28.2823 31.5303C28.9699 30.8816 29.6545 30.2272 30.3016 29.5386C35.6425 23.8526 36.5239 15.2253 32.4628 8.49224Z" fill="#D0FF00"/>
</svg>
